<svg 
  id="glowing-icon"
  height="258.895pt" 
  viewBox="0 0 258.895 258.895"
  width="258.895pt" 
  xmlns="http://www.w3.org/2000/svg" 
  xmlns:xlink="http://www.w3.org/1999/xlink">
    <linearGradient id="a" gradientUnits="userSpaceOnUse" x1="0" x2="258.895" y1="129.4475" y2="129.4475">
        <stop offset="0" stop-color="#18d0ad"/><stop offset=".904496403" stop-color="#07c3f2"/>
    </linearGradient>
    <filter id="glow">
        <feGaussianBlur stdDeviation="4.5" result="coloredBlur"/>
        <feMerge>
        <feMergeNode in="coloredBlur"/>
        <feMergeNode in="SourceGraphic"/>
        </feMerge>
    </filter>
    <path d="m129.15 43.219c3.423.002 6.262 2.649 6.504 6.064-.04.265-.046.533-.02.8-.191 3.446-3.032 6.148-6.484 6.163-1.73 0-3.389-.687-4.613-1.91-1.223-1.224-1.91-2.883-1.91-4.613.011-3.595 2.928-6.504 6.523-6.504zm47.827 29.116c-1.937-.053-3.875.014-5.803.201-1.163.117-2.174.845-2.653 1.911-.48 1.065-.354 2.306.33 3.253.684.948 1.821 1.458 2.983 1.339 13.608-1.401 24.154 3.902 28.016 13.408 3.842 9.485 1.301 24.433-14.548 43.164-.808.883-1.068 2.138-.677 3.269s1.371 1.957 2.552 2.152 2.374-.273 3.107-1.219c16.73-19.771 20.692-37.261 15.609-49.828-4.482-11.006-15.689-17.329-28.936-17.67zm-90.951.201c-15.869.28-26.715 5.203-32.658 13.247-7.905 10.726-6.044 25.815 2.661 39.362 1.009 1.422 2.957 1.8 4.424.858 1.466-.943 1.933-2.871 1.059-4.38-7.764-12.067-8.765-24.013-2.901-31.978 5.883-7.964 19.591-13.127 43.964-9.325 1.169.217 2.362-.219 3.116-1.137.754-.919.949-2.174.509-3.278s-1.445-1.881-2.624-2.029c-5.801-.942-11.673-1.384-17.55-1.32zm43.124 42.363c-3.462-.005-6.784 1.368-9.232 3.816s-3.82 5.77-3.815 9.232c.005 3.455 1.383 6.766 3.83 9.206 2.446 2.439 5.762 3.806 9.217 3.801 7.179-.011 12.996-5.828 13.007-13.007.006-3.455-1.362-6.771-3.801-9.218s-5.751-3.824-9.206-3.83zm-71.7 52.15c3.595 0 6.513 2.908 6.524 6.503 0 1.73-.688 3.39-1.911 4.613-1.224 1.224-2.883 1.911-4.613 1.911-3.595-.011-6.504-2.929-6.504-6.524.011-3.587 2.917-6.492 6.504-6.503zm143.38 0c3.588.011 6.493 2.916 6.504 6.503 0 3.595-2.908 6.513-6.504 6.524-1.73 0-3.389-.687-4.613-1.911-1.223-1.223-1.91-2.883-1.91-4.613.011-3.595 2.928-6.503 6.523-6.503zm-107.82 9.705c-.976.081-1.863.596-2.418 1.403-.554.806-.717 1.82-.444 2.759 0 0 2.542 9.366 8.545 18.811 6.003 9.425 15.929 19.431 30.457 19.431 19.131 0 30.217-21.212 30.217-21.212.605-1.022.608-2.292.006-3.316-.602-1.023-1.713-1.639-2.9-1.607s-2.263.707-2.809 1.761c0 0-10.506 17.87-24.534 17.87-11.526 0-19.531-7.924-24.934-16.409s-7.764-17.03-7.764-17.03c-.359-1.418-1.619-2.425-3.082-2.461-.113-.006-.227-.006-.34 0zm36.14-140.059c-3.462-.005-6.784 1.368-9.232 3.816s-3.82 5.77-3.815 9.232c.005 3.455 1.383 6.766 3.83 9.206 2.446 2.439 5.762 3.806 9.217 3.801 5.161-.007 9.83-3.06 11.907-7.784 15.649 11.166 23.453 32.878 26.014 55.931 2.802 24.814-.52 50.909-5.182 64.877-.568 1.712.359 3.561 2.071 4.13 1.713.568 3.562-.358 4.132-2.069 5.103-15.349 8.365-41.804 5.463-67.678-2.821-25.214-11.606-50.148-31.538-62.315-.941-6.384-6.414-11.116-12.867-11.127zm22.353 37.782c-.134-.008-.267-.008-.4 0-.184.024-.364.065-.541.12-25.523 6.128-49.321 17.972-69.599 34.639-19.211 16.009-32.818 35.56-33.218 55.651-2.134 2.383-3.316 5.467-3.322 8.665 0 3.459 1.375 6.775 3.822 9.219 2.448 2.444 5.766 3.814 9.225 3.809 7.187-.011 13.007-5.841 13.007-13.028.006-3.455-1.362-6.77-3.801-9.217-2.44-2.447-5.751-3.825-9.206-3.83-.956.002-1.909.109-2.842.32 2.022-15.929 13.608-32.518 30.497-46.606 19.517-15.993 42.391-27.376 66.918-33.299 1.596-.351 2.687-1.829 2.55-3.458s-1.458-2.905-3.09-2.985zm-80.986 61.894c-1.327-.02-2.534.766-3.052 1.987-.519 1.222-.246 2.636.691 3.577 19.931 20.611 44.745 35.82 68.078 43.744 22.853 7.764 44.465 8.685 58.893-.4 1.776.867 3.727 1.319 5.703 1.321 3.459 0 6.776-1.376 9.219-3.823 2.444-2.447 3.814-5.766 3.809-9.225 0-3.455-1.373-6.768-3.816-9.211s-5.757-3.816-9.212-3.816c-3.458-.005-6.777 1.365-9.224 3.809-2.448 2.443-3.823 5.76-3.823 9.218.008 2.541.76 5.025 2.161 7.144-11.906 6.324-30.837 5.864-51.629-1.2-22.252-7.545-46.306-22.293-65.476-42.084-.601-.647-1.439-1.022-2.322-1.041zm58.419-115.332c28.618 0 56.063 11.368 76.299 31.604s31.605 47.682 31.605 76.3-11.369 56.064-31.605 76.3-47.681 31.605-76.299 31.605-56.064-11.369-76.3-31.605-31.605-47.682-31.605-76.3 11.369-56.064 31.605-76.3 47.682-31.604 76.3-31.604zm.511-21.039c-34.331 0-67.257 13.638-91.533 37.914s-37.914 57.202-37.914 91.533c0 34.332 13.638 67.257 37.914 91.533s57.202 37.915 91.533 37.915c34.332 0 67.257-13.639 91.533-37.915s37.915-57.201 37.915-91.533c0-34.331-13.639-67.257-37.915-91.533s-57.201-37.914-91.533-37.914z"
  fill="url(#a)" 
  fill-rule="evenodd"/>
</svg>